<mxfile host="app.diagrams.net" modified="2024-02-15T15:49:20.589Z" agent="Mozilla/5.0 (Windows NT 10.0; Win64; x64; rv:122.0) Gecko/20100101 Firefox/122.0" etag="F7WtCNg48LyLB8sA01AP" version="23.1.2" type="github">
  <diagram name="Page-1" id="2YBvvXClWsGukQMizWep">
    <mxGraphModel dx="2268" dy="828" grid="1" gridSize="10" guides="1" tooltips="1" connect="1" arrows="1" fold="1" page="1" pageScale="1" pageWidth="850" pageHeight="1100" math="0" shadow="0">
      <root>
        <mxCell id="0" />
        <mxCell id="1" parent="0" />
        <mxCell id="J51FSioV3NpKfR9tJQqT-1" value="&lt;div&gt;&lt;b&gt;Team List&lt;br&gt;&lt;/b&gt;&lt;/div&gt;&lt;div&gt;&lt;b&gt;&lt;br&gt;&lt;/b&gt;&lt;/div&gt;&lt;div&gt;data:&lt;/div&gt;&lt;div&gt;Teams&amp;lt;list&amp;gt;&lt;/div&gt;&lt;div align=&quot;left&quot;&gt;-TeamId &lt;br&gt;&lt;/div&gt;&lt;div align=&quot;left&quot;&gt;-TeamName&lt;/div&gt;&lt;div align=&quot;left&quot;&gt;-TeamDescription&lt;/div&gt;&lt;div align=&quot;left&quot;&gt;-TeamType&lt;br&gt;&lt;/div&gt;" style="rounded=1;whiteSpace=wrap;html=1;" vertex="1" parent="1">
          <mxGeometry x="50" y="40" width="210" height="150" as="geometry" />
        </mxCell>
        <mxCell id="J51FSioV3NpKfR9tJQqT-2" value="&lt;div align=&quot;center&quot;&gt;&lt;b&gt;Team Edit&lt;/b&gt;&lt;/div&gt;&lt;div align=&quot;center&quot;&gt;&lt;b&gt;/Edit/:id?&lt;br&gt;&lt;/b&gt;&lt;/div&gt;&lt;div align=&quot;center&quot;&gt;data:&lt;/div&gt;&lt;div align=&quot;center&quot;&gt;teamId (from route)&lt;br&gt;&lt;/div&gt;&lt;div align=&quot;left&quot;&gt;teamDetails&lt;/div&gt;&lt;div align=&quot;left&quot;&gt;teamActive&lt;/div&gt;&lt;div align=&quot;left&quot;&gt;teamUsers&lt;br&gt;&lt;/div&gt;&lt;div align=&quot;left&quot;&gt;teamBrokers&lt;/div&gt;&lt;div align=&quot;left&quot;&gt;teamCompanies&lt;br&gt;&lt;/div&gt;" style="rounded=1;whiteSpace=wrap;html=1;align=center;" vertex="1" parent="1">
          <mxGeometry x="425" y="40" width="210" height="150" as="geometry" />
        </mxCell>
        <mxCell id="J51FSioV3NpKfR9tJQqT-3" value="" style="endArrow=classic;startArrow=classic;html=1;rounded=0;entryX=0;entryY=0.34;entryDx=0;entryDy=0;entryPerimeter=0;" edge="1" parent="1" target="J51FSioV3NpKfR9tJQqT-2">
          <mxGeometry width="50" height="50" relative="1" as="geometry">
            <mxPoint x="260" y="91" as="sourcePoint" />
            <mxPoint x="370" y="60" as="targetPoint" />
          </mxGeometry>
        </mxCell>
        <mxCell id="J51FSioV3NpKfR9tJQqT-4" value="page link" style="text;html=1;strokeColor=none;fillColor=none;align=center;verticalAlign=middle;whiteSpace=wrap;rounded=0;" vertex="1" parent="1">
          <mxGeometry x="310" y="60" width="60" height="30" as="geometry" />
        </mxCell>
        <mxCell id="J51FSioV3NpKfR9tJQqT-5" value="&lt;div&gt;&lt;b&gt;Team Details&lt;/b&gt;&lt;/div&gt;&lt;div&gt;&lt;b&gt;/Edit/:id?/&lt;br&gt;&lt;/b&gt;&lt;/div&gt;&lt;div&gt;&lt;b&gt;&lt;br&gt;&lt;/b&gt;&lt;/div&gt;&lt;div&gt;props:&lt;/div&gt;&lt;div&gt;teamDetails&lt;br&gt;&lt;/div&gt;&lt;div&gt;&lt;br&gt;&lt;/div&gt;&lt;div&gt;&lt;br&gt;&lt;/div&gt;&lt;div&gt;data:&lt;/div&gt;&lt;div&gt;teamName&lt;/div&gt;&lt;div&gt;teamDescription&lt;/div&gt;&lt;div&gt;teamType&lt;/div&gt;&lt;div&gt;&lt;br&gt;&lt;/div&gt;&lt;div&gt;emits:&lt;/div&gt;&lt;div&gt;update-details &lt;br&gt;&lt;/div&gt;&lt;div&gt;{ teamName, teamDescription,&lt;/div&gt;&lt;div&gt;teamType }&lt;br&gt;&lt;/div&gt;&lt;div&gt;&lt;br&gt;&lt;/div&gt;" style="rounded=1;whiteSpace=wrap;html=1;verticalAlign=top;" vertex="1" parent="1">
          <mxGeometry x="180" y="350" width="130" height="270" as="geometry" />
        </mxCell>
        <mxCell id="J51FSioV3NpKfR9tJQqT-6" value="&lt;div&gt;&lt;b&gt;Team Users&lt;/b&gt;&lt;/div&gt;&lt;div&gt;&lt;b&gt;/Edit/:id/Users&lt;br&gt;&lt;/b&gt;&lt;/div&gt;&lt;div&gt;&lt;br&gt;&lt;/div&gt;&lt;div&gt;&lt;div&gt;props:&lt;/div&gt;teamDetails&lt;/div&gt;&lt;div&gt;teamUsers&lt;br&gt;&lt;/div&gt;&lt;div&gt;&lt;br&gt;&lt;/div&gt;&lt;div&gt;data:&lt;/div&gt;&lt;div&gt;teamUsers&lt;br&gt;&lt;/div&gt;&lt;div&gt;&lt;br&gt;&lt;/div&gt;&lt;div&gt;&lt;br&gt;&lt;/div&gt;&lt;div&gt;&lt;br&gt;&lt;/div&gt;&lt;div&gt;&lt;div&gt;emits:&lt;/div&gt;&lt;div&gt;update-users&lt;br&gt;&lt;/div&gt;&lt;div&gt;{ teamUsers }&lt;/div&gt;&lt;/div&gt;" style="rounded=1;whiteSpace=wrap;html=1;verticalAlign=top;" vertex="1" parent="1">
          <mxGeometry x="330" y="350" width="120" height="270" as="geometry" />
        </mxCell>
        <mxCell id="J51FSioV3NpKfR9tJQqT-7" value="&lt;div&gt;&lt;b&gt;Team Brokers&lt;/b&gt;&lt;/div&gt;&lt;div&gt;&lt;b&gt;/Edit/:id/Brokerages&lt;br&gt;&lt;/b&gt;&lt;/div&gt;&lt;div&gt;&lt;br&gt;&lt;/div&gt;&lt;div&gt;&lt;div&gt;props:&lt;/div&gt;teamDetails&lt;/div&gt;&lt;div&gt;teamBrokers&lt;/div&gt;&lt;div&gt;&lt;br&gt;&lt;/div&gt;&lt;div&gt;&lt;div&gt;data:&lt;/div&gt;&lt;div&gt;teamBrokers&lt;/div&gt;&lt;div&gt;&lt;br&gt;&lt;/div&gt;&lt;div&gt;&lt;br&gt;&lt;/div&gt;&lt;div&gt;&lt;br&gt;&lt;/div&gt;&lt;div&gt;&lt;div&gt;emits:&lt;/div&gt;&lt;div&gt;update-brokers&lt;br&gt;&lt;/div&gt;&lt;div&gt;{ teamBrokers}&lt;/div&gt;&lt;/div&gt;&lt;/div&gt;" style="rounded=1;whiteSpace=wrap;html=1;verticalAlign=top;" vertex="1" parent="1">
          <mxGeometry x="470" y="350" width="120" height="270" as="geometry" />
        </mxCell>
        <mxCell id="J51FSioV3NpKfR9tJQqT-8" value="&lt;div&gt;&lt;b&gt;Team History&lt;/b&gt;&lt;/div&gt;&lt;div&gt;&lt;b&gt;/Edit/:id/History&lt;br&gt;&lt;/b&gt;&lt;/div&gt;&lt;div&gt;&lt;br&gt;&lt;/div&gt;&lt;div&gt;&lt;div&gt;props:&lt;/div&gt;teamDetails&lt;/div&gt;&lt;div&gt;&lt;br&gt;&lt;/div&gt;&lt;div&gt;&lt;br&gt;&lt;/div&gt;&lt;div&gt;data:&lt;/div&gt;&lt;div&gt;teamHistory&lt;br&gt;&lt;/div&gt;" style="rounded=1;whiteSpace=wrap;html=1;verticalAlign=top;" vertex="1" parent="1">
          <mxGeometry x="750" y="350" width="120" height="160" as="geometry" />
        </mxCell>
        <mxCell id="J51FSioV3NpKfR9tJQqT-13" value="&lt;div&gt;&lt;b&gt;Team Companies&lt;/b&gt;&lt;/div&gt;&lt;div&gt;&lt;b&gt;/Edit/:id/Companies&lt;br&gt;&lt;/b&gt;&lt;/div&gt;&lt;div&gt;&lt;br&gt;&lt;/div&gt;&lt;div&gt;&lt;div&gt;props:&lt;/div&gt;teamDetails&lt;/div&gt;&lt;div&gt;teamCompanies&lt;/div&gt;&lt;div&gt;&lt;br&gt;&lt;/div&gt;&lt;div&gt;&lt;div&gt;&lt;div&gt;data:&lt;/div&gt;&lt;div&gt;teamCompanies&lt;br&gt;&lt;/div&gt;&lt;div&gt;&lt;br&gt;&lt;/div&gt;&lt;div&gt;&lt;br&gt;&lt;/div&gt;&lt;div&gt;&lt;br&gt;&lt;/div&gt;&lt;div&gt;&lt;div&gt;emits:&lt;/div&gt;&lt;div&gt;update-users&lt;br&gt;&lt;/div&gt;&lt;div&gt;{ teamCompanies}&lt;/div&gt;&lt;/div&gt;&lt;/div&gt;&lt;/div&gt;" style="rounded=1;whiteSpace=wrap;html=1;verticalAlign=top;" vertex="1" parent="1">
          <mxGeometry x="613" y="350" width="120" height="270" as="geometry" />
        </mxCell>
        <mxCell id="J51FSioV3NpKfR9tJQqT-23" value="" style="group" vertex="1" connectable="0" parent="1">
          <mxGeometry x="240" y="330" width="550" height="10" as="geometry" />
        </mxCell>
        <mxCell id="J51FSioV3NpKfR9tJQqT-19" style="edgeStyle=orthogonalEdgeStyle;rounded=0;orthogonalLoop=1;jettySize=auto;html=1;exitX=0.5;exitY=1;exitDx=0;exitDy=0;entryX=0.5;entryY=0;entryDx=0;entryDy=0;" edge="1" parent="1" source="J51FSioV3NpKfR9tJQqT-2" target="J51FSioV3NpKfR9tJQqT-8">
          <mxGeometry relative="1" as="geometry">
            <mxPoint x="770" y="330" as="targetPoint" />
            <Array as="points">
              <mxPoint x="530" y="280" />
              <mxPoint x="810" y="280" />
            </Array>
          </mxGeometry>
        </mxCell>
        <mxCell id="J51FSioV3NpKfR9tJQqT-17" style="edgeStyle=orthogonalEdgeStyle;rounded=0;orthogonalLoop=1;jettySize=auto;html=1;exitX=0.5;exitY=1;exitDx=0;exitDy=0;entryX=0.5;entryY=0;entryDx=0;entryDy=0;" edge="1" parent="1" source="J51FSioV3NpKfR9tJQqT-2" target="J51FSioV3NpKfR9tJQqT-7">
          <mxGeometry relative="1" as="geometry">
            <mxPoint x="530" y="330" as="targetPoint" />
            <Array as="points">
              <mxPoint x="530" y="350" />
            </Array>
          </mxGeometry>
        </mxCell>
        <mxCell id="J51FSioV3NpKfR9tJQqT-18" style="edgeStyle=orthogonalEdgeStyle;rounded=0;orthogonalLoop=1;jettySize=auto;html=1;exitX=0.5;exitY=1;exitDx=0;exitDy=0;entryX=0.5;entryY=0;entryDx=0;entryDy=0;" edge="1" parent="1" source="J51FSioV3NpKfR9tJQqT-2" target="J51FSioV3NpKfR9tJQqT-13">
          <mxGeometry relative="1" as="geometry">
            <mxPoint x="650" y="330" as="targetPoint" />
            <Array as="points">
              <mxPoint x="530" y="280" />
              <mxPoint x="673" y="280" />
            </Array>
          </mxGeometry>
        </mxCell>
        <mxCell id="J51FSioV3NpKfR9tJQqT-16" style="edgeStyle=orthogonalEdgeStyle;rounded=0;orthogonalLoop=1;jettySize=auto;html=1;exitX=0.5;exitY=1;exitDx=0;exitDy=0;entryX=0.408;entryY=0.017;entryDx=0;entryDy=0;entryPerimeter=0;" edge="1" parent="1" source="J51FSioV3NpKfR9tJQqT-2" target="J51FSioV3NpKfR9tJQqT-6">
          <mxGeometry relative="1" as="geometry">
            <mxPoint x="370" y="330" as="targetPoint" />
            <Array as="points">
              <mxPoint x="530" y="280" />
              <mxPoint x="380" y="280" />
            </Array>
          </mxGeometry>
        </mxCell>
        <mxCell id="J51FSioV3NpKfR9tJQqT-15" style="edgeStyle=orthogonalEdgeStyle;rounded=0;orthogonalLoop=1;jettySize=auto;html=1;exitX=0.5;exitY=1;exitDx=0;exitDy=0;entryX=0.4;entryY=0.033;entryDx=0;entryDy=0;entryPerimeter=0;" edge="1" parent="1" source="J51FSioV3NpKfR9tJQqT-2" target="J51FSioV3NpKfR9tJQqT-5">
          <mxGeometry relative="1" as="geometry">
            <mxPoint x="250" y="330" as="targetPoint" />
            <Array as="points">
              <mxPoint x="530" y="280" />
              <mxPoint x="228" y="280" />
            </Array>
          </mxGeometry>
        </mxCell>
      </root>
    </mxGraphModel>
  </diagram>
</mxfile>
